<?xml version="1.0" encoding="UTF-8" standalone="no"?>
<svg
   xmlns:dc="http://purl.org/dc/elements/1.1/"
   xmlns:cc="http://creativecommons.org/ns#"
   xmlns:rdf="http://www.w3.org/1999/02/22-rdf-syntax-ns#"
   xmlns:svg="http://www.w3.org/2000/svg"
   xmlns="http://www.w3.org/2000/svg"
   xmlns:sodipodi="http://sodipodi.sourceforge.net/DTD/sodipodi-0.dtd"
   xmlns:inkscape="http://www.inkscape.org/namespaces/inkscape"
   width="488.12"
   height="128.55"
   version="1.1"
   viewBox="0 0 129.15 34.013"
   id="svg35"
   sodipodi:docname="ekino.svg"
   inkscape:version="0.92.3 (2405546, 2018-03-11)">
  <metadata
     id="metadata39">
    <rdf:RDF>
      <cc:Work
         rdf:about="">
        <dc:format>image/svg+xml</dc:format>
        <dc:type
           rdf:resource="http://purl.org/dc/dcmitype/StillImage" />
      </cc:Work>
    </rdf:RDF>
  </metadata>
  <sodipodi:namedview
     pagecolor="#ffffff"
     bordercolor="#666666"
     borderopacity="1"
     objecttolerance="10"
     gridtolerance="10"
     guidetolerance="10"
     inkscape:pageopacity="0"
     inkscape:pageshadow="2"
     inkscape:window-width="1647"
     inkscape:window-height="885"
     id="namedview37"
     showgrid="false"
     inkscape:zoom="0.79693519"
     inkscape:cx="-12.548069"
     inkscape:cy="64.275002"
     inkscape:window-x="0"
     inkscape:window-y="25"
     inkscape:window-maximized="0"
     inkscape:current-layer="g29" />
  <defs
     id="defs5">
    <clipPath
       id="clipPath18">
      <path
         d="M 0,517.008 H 517.008 V 0 H 0 Z"
         id="path2" />
    </clipPath>
  </defs>
  <g
     transform="translate(209.72 66.233)"
     id="g33">
    <g
       transform="matrix(.35278 0 0 -.35278 -236.34 41.659)"
       id="g31">
      <g
         clip-path="url(#clipPath18)"
         id="g29">
        <g
           transform="translate(122.41 251.12)"
           id="g9"
           style="fill:#ff5145;fill-opacity:1">
          <path
             d="m0 0c-0.376 7.889-4.258 12.271-11.519 12.271-6.763 0-11.396-4.382-12.522-12.271zm-46.956-8.264v1.002c0 21.036 15.652 34.309 35.437 34.309 17.905 0 33.306-10.267 33.306-33.808v-5.886h-46.079c0.626-8.639 5.635-13.649 13.649-13.649 7.387 0 10.518 3.382 11.394 7.765h21.036c-2.003-14.776-13.398-23.165-33.182-23.165-20.535 0-35.561 12.021-35.561 33.432"
             fill="#1d1d1b"
             id="path7"
             style="fill:#ff5145;fill-opacity:1" />
        </g>
        <g
           transform="translate(153.83 305.21)"
           id="g13"
           style="fill:#ff5145;fill-opacity:1">
          <path
             d="m0 0h22.414v-54.719l17.655 25.92h23.29l-21.411-29.426 23.164-36.062h-25.043l-17.655 28.674v-28.674h-22.414z"
             fill="#1d1d1b"
             id="path11"
             style="fill:#ff5145;fill-opacity:1" />
        </g>
        <path
           d="m226.7 276.41h22.414v-65.488h-22.414zm-1.127 17.78c0 6.637 5.259 11.645 12.271 11.645s12.396-5.008 12.396-11.645c0-6.636-5.384-11.519-12.396-11.519s-12.271 4.883-12.271 11.519"
           fill="#1d1d1b"
           id="path15"
           style="fill:#ff5145;fill-opacity:1" />
        <g
           transform="translate(263.01 276.41)"
           id="g19"
           style="fill:#ff5145;fill-opacity:1">
          <path
             d="m0 0h22.414v-10.518c3.505 6.762 10.644 12.271 21.536 12.271 12.646 0 21.413-7.888 21.413-24.667v-42.574h-22.414v38.066c0 7.387-2.88 11.019-9.392 11.019-6.635 0-11.143-4.007-11.143-12.396v-36.689h-22.414z"
             fill="#1d1d1b"
             id="path17"
             style="fill:#ff5145;fill-opacity:1" />
        </g>
        <g
           transform="translate(386.46 243.23)"
           id="g23"
           style="fill:#ff5145;fill-opacity:1">
          <path
             d="m0 0v1.002c0 11.019-4.382 17.154-12.898 17.154-8.389 0-13.021-5.885-13.021-16.905v-1c0-11.27 4.382-17.406 13.021-17.406 8.392 0 12.898 6.261 12.898 17.155m-48.834-0.376v1.002c0 21.036 15.652 34.309 35.936 34.309 20.161 0 35.687-12.897 35.687-33.684v-1c0-21.287-15.652-34.059-35.811-34.059-20.16 0-35.812 12.27-35.812 33.432"
             fill="#1d1d1b"
             id="path21"
             style="fill:#ff5145;fill-opacity:1" />
        </g>
        <g
           transform="translate(415.63 222.19)"
           id="g27"
           style="fill:#ff5145;fill-opacity:1">
          <path
             d="m0 0c0 7.012 5.383 12.647 12.772 12.647 7.512 0 13.147-5.635 13.147-12.647 0-7.013-5.635-12.648-13.147-12.648-7.389 0-12.772 5.635-12.772 12.648"
             fill="#1d1d1b"
             id="path25"
             style="fill:#ff5145;fill-opacity:1" />
        </g>
      </g>
    </g>
  </g>
</svg>
